<?xml version="1.0" standalone="no"?>
<!DOCTYPE svg PUBLIC "-//W3C//DTD SVG 20010904//EN"
 "http://www.w3.org/TR/2001/REC-SVG-20010904/DTD/svg10.dtd">
<svg version="1.0" xmlns="http://www.w3.org/2000/svg"
 width="1312.000000pt" height="1312.000000pt" viewBox="0 0 1312.000000 1312.000000"
 preserveAspectRatio="xMidYMid meet">
<metadata>
Created by potrace 1.14, written by Peter Selinger 2001-2017
</metadata>
<g transform="translate(0.000000,1312.000000) scale(0.100000,-0.100000)"
fill="#000000" stroke="none">
<path d="M1098 10195 c-2 -2 -19 -6 -38 -9 -41 -8 -46 -9 -83 -24 -16 -7 -30
-12 -33 -12 -10 0 -193 -91 -255 -126 -35 -20 -93 -52 -128 -71 -35 -19 -78
-44 -95 -54 -17 -10 -38 -22 -46 -26 -8 -4 -37 -20 -65 -36 -27 -17 -66 -39
-85 -49 -19 -11 -78 -45 -131 -75 l-96 -55 3 -39 c8 -91 116 -315 302 -625 51
-86 89 -159 133 -259 34 -77 118 -321 150 -435 18 -64 17 -63 23 -88 3 -12 7
-26 10 -30 3 -5 7 -19 10 -33 3 -13 10 -44 17 -69 6 -25 13 -53 15 -62 2 -10
6 -26 9 -35 18 -68 42 -183 38 -183 -3 0 -1 -6 5 -13 6 -7 13 -28 16 -47 2
-19 6 -44 9 -55 2 -11 8 -38 12 -60 5 -22 9 -42 10 -45 5 -18 15 -70 20 -95 3
-16 7 -41 10 -55 9 -43 17 -84 20 -105 1 -11 8 -47 14 -80 6 -33 13 -69 15
-80 4 -26 20 -117 21 -130 2 -13 16 -105 20 -130 2 -11 4 -20 5 -20 1 0 3 -13
4 -30 4 -37 15 -121 22 -155 9 -51 34 -226 39 -276 2 -21 6 -57 9 -79 3 -22
10 -80 16 -130 5 -49 13 -110 16 -135 3 -25 7 -70 9 -101 2 -31 6 -74 9 -95 7
-52 16 -146 22 -219 2 -33 6 -85 9 -115 13 -141 23 -295 30 -430 2 -36 6 -119
10 -185 5 -106 9 -260 16 -576 1 -53 0 -101 -2 -105 -7 -15 -3 -687 4 -734 4
-25 9 -61 12 -80 2 -19 7 -46 10 -60 3 -14 8 -41 12 -60 9 -46 10 -49 13 -55
1 -3 3 -9 4 -14 0 -5 4 -13 9 -17 4 -4 7 -13 7 -20 0 -54 98 -193 150 -212 24
-9 78 -9 110 0 50 13 142 100 196 184 64 99 174 351 174 397 0 9 5 17 12 17 6
0 9 3 5 6 -3 3 1 23 8 45 8 21 12 39 8 39 -3 0 -1 6 5 12 16 21 105 435 96
450 -3 4 -1 8 5 8 5 0 8 8 7 17 -2 10 1 33 5 53 10 44 16 79 29 155 5 33 12
71 15 85 2 13 7 40 10 60 3 20 8 47 10 60 10 47 17 85 20 110 3 14 7 36 9 50
3 13 8 40 11 60 20 126 32 182 37 169 3 -8 4 -27 3 -42 -2 -15 1 -27 5 -27 5
0 5 -13 0 -29 -4 -16 -6 -32 -4 -34 3 -3 7 -47 10 -98 3 -52 7 -134 9 -184 3
-49 7 -126 9 -170 13 -232 17 -309 22 -405 10 -233 17 -320 35 -435 17 -111
17 -114 23 -133 3 -9 7 -29 10 -43 22 -132 103 -315 163 -370 140 -129 295 -2
431 354 17 42 28 77 25 77 -3 0 0 7 7 15 7 8 9 15 5 15 -4 0 -3 6 3 13 6 7 13
24 16 37 3 14 15 59 26 100 12 41 22 82 24 90 8 46 64 240 87 300 90 237 195
299 409 242 83 -22 290 -116 443 -201 29 -16 94 -52 145 -80 50 -28 96 -51
101 -51 5 0 11 -3 13 -7 2 -5 28 -21 58 -37 30 -16 63 -36 73 -44 9 -8 17 -12
17 -8 0 4 12 -1 28 -12 27 -19 196 -118 233 -137 10 -5 19 -13 19 -17 0 -5 5
-8 10 -8 16 0 90 -71 90 -85 0 -18 -22 -33 -55 -39 -17 -3 -43 -7 -60 -10 -37
-6 -164 -15 -320 -21 -160 -6 -242 -14 -290 -27 -22 -5 -51 -12 -65 -14 -49
-8 -146 -49 -173 -72 -9 -8 -17 -11 -17 -6 0 14 -81 -78 -91 -104 -30 -79 11
-124 157 -170 55 -18 115 -34 134 -37 19 -3 43 -8 53 -11 11 -3 29 -7 40 -9
12 -2 54 -8 92 -14 39 -5 93 -13 120 -16 28 -3 64 -8 80 -10 30 -4 97 -11 205
-20 49 -4 205 -15 270 -19 14 -1 30 -5 37 -9 6 -4 14 -3 18 3 4 6 10 8 14 6 4
-3 56 -7 117 -10 560 -28 1488 -25 2119 8 213 11 408 24 490 31 33 3 86 7 118
9 78 6 185 16 227 21 19 3 58 7 85 9 28 3 66 7 85 10 19 3 58 8 85 11 28 3 64
8 80 10 17 3 48 7 70 10 22 2 51 7 65 10 14 3 43 8 65 11 63 8 264 50 325 68
30 9 65 18 76 21 12 3 39 12 60 21 22 9 39 15 39 13 0 -7 92 55 110 75 28 29
80 101 121 166 33 53 194 371 199 394 1 6 12 34 24 61 48 107 215 536 226 580
1 6 5 17 8 25 3 8 27 80 52 160 26 80 50 154 55 165 12 29 23 59 25 70 15 66
166 372 241 488 24 37 44 70 44 73 0 3 11 17 25 32 14 15 25 32 25 39 0 6 3
13 8 15 7 3 65 73 102 123 19 25 307 313 340 340 14 11 59 47 100 81 41 33
111 87 155 120 44 32 81 62 83 67 2 4 8 7 13 7 5 0 40 23 79 50 39 28 75 50
80 50 6 0 10 4 10 8 0 5 10 14 23 21 12 6 34 19 49 29 15 9 63 39 105 66 391
245 627 414 882 630 14 12 95 91 181 176 203 202 330 366 426 550 21 41 44 78
49 82 6 4 6 8 2 8 -4 0 -2 10 5 23 7 12 13 24 13 27 1 3 7 19 14 35 40 100 74
223 88 315 9 64 11 324 3 370 -4 25 -11 61 -14 80 -7 45 -21 107 -34 148 -6
18 -11 33 -11 35 0 20 -92 247 -129 317 -99 190 -255 430 -279 430 -7 0 -13 5
-13 11 0 19 -53 4 -71 -21 -19 -24 -52 -157 -63 -252 -3 -27 -8 -67 -12 -91
-3 -24 -7 -65 -9 -93 -2 -27 -4 -49 -5 -49 -3 0 -13 -152 -14 -202 -1 -29 -3
-53 -6 -53 -3 0 -7 -27 -8 -60 -2 -33 -5 -71 -8 -83 -2 -12 -6 -49 -9 -82 -6
-64 -12 -115 -19 -155 -3 -14 -7 -43 -11 -65 -3 -22 -7 -47 -10 -55 -2 -8 -6
-26 -9 -40 -3 -14 -8 -36 -11 -50 -3 -14 -8 -32 -10 -40 -2 -8 -4 -16 -5 -17
-2 -2 -3 -6 -4 -10 -44 -195 -206 -424 -412 -581 -61 -46 -145 -102 -154 -102
-5 0 -10 -4 -12 -8 -6 -16 -168 -110 -428 -249 -134 -72 -415 -212 -424 -212
-5 1 -12 -3 -15 -9 -3 -5 -58 -36 -121 -69 -148 -77 -228 -121 -262 -145 -14
-10 -29 -18 -32 -18 -3 0 -30 -16 -60 -35 -30 -19 -60 -35 -66 -35 -5 0 -10
-4 -10 -10 0 -5 -4 -10 -9 -10 -23 0 -442 -295 -526 -371 -11 -10 -45 -40 -75
-66 -146 -129 -352 -350 -435 -467 -11 -15 -25 -33 -30 -40 -6 -6 -34 -47 -63
-91 -29 -44 -56 -84 -60 -90 -4 -5 -11 -17 -15 -25 -4 -8 -23 -42 -42 -75
-136 -240 -275 -589 -361 -910 -15 -57 -80 -328 -89 -370 -2 -11 -9 -42 -14
-70 -6 -27 -14 -66 -16 -85 -3 -19 -10 -51 -15 -70 -5 -19 -12 -52 -16 -74 -3
-21 -7 -46 -9 -55 -13 -54 -47 -209 -50 -226 -6 -39 -16 -91 -37 -185 -12 -52
-22 -104 -23 -115 -3 -33 -18 -22 -51 36 -17 30 -55 95 -84 144 -29 50 -60
104 -70 120 -42 73 -124 212 -138 235 -9 14 -15 27 -15 30 1 3 -4 12 -11 20
-7 8 -32 49 -56 90 -23 41 -58 99 -77 127 -18 29 -33 56 -32 59 0 4 -3 10 -8
13 -7 5 -193 277 -218 319 -5 9 -16 21 -22 25 -7 4 -13 12 -13 17 0 4 -9 19
-20 32 -10 12 -52 64 -91 113 -78 97 -145 170 -223 244 -27 25 -60 57 -75 71
-70 69 -246 195 -401 288 -33 19 -299 155 -310 157 -6 2 -55 22 -100 42 -19 8
-44 19 -55 23 -11 4 -36 15 -55 23 -90 38 -592 213 -635 221 -5 1 -16 5 -22 9
-7 5 -13 6 -13 2 0 -3 -9 -1 -21 5 -11 6 -29 13 -39 15 -10 2 -63 17 -117 34
-54 17 -107 33 -118 36 -110 24 -670 205 -845 273 -52 20 -97 37 -100 38 -6 1
-25 9 -140 59 -138 60 -150 65 -157 66 -5 0 -12 4 -18 9 -5 4 -62 34 -125 66
-63 32 -117 61 -120 64 -3 3 -16 11 -30 17 -128 62 -429 272 -561 391 -108 97
-249 245 -303 317 -17 22 -33 42 -37 45 -3 3 -40 55 -82 117 -76 114 -197 339
-197 367 0 9 -4 16 -8 16 -5 0 -16 21 -25 48 -8 26 -28 81 -42 122 -38 109
-66 210 -89 325 -25 117 -44 245 -52 335 -2 25 -6 74 -9 110 -3 36 -8 200 -10
365 -6 331 -10 455 -19 530 -4 28 -8 64 -10 80 -6 56 -19 110 -29 130 -6 11
-12 25 -13 32 -1 6 -13 23 -26 38 -29 31 -76 35 -133 11 -41 -17 -184 -121
-198 -143 -4 -7 -14 -13 -22 -13 -7 0 -15 -4 -17 -8 -5 -12 -68 -57 -123 -87
-30 -17 -72 -29 -105 -32 -49 -5 -59 -2 -86 20 -42 36 -80 113 -105 215 -46
185 -86 234 -205 247 -13 1 -25 1 -26 0z"/>
</g>
</svg>
